<svg height="28" viewBox="0 0 28 28" width="28" xmlns="http://www.w3.org/2000/svg"><path d="m9.00371264 16.1237129-1.06305235-1.0630527c-.58578633-.5857865-.58578627-1.5355339.00000012-2.1213202l1.05021234-1.0502125-.00000399-.0013166 5.59925754-5.59925757 1.7980073-1.79825958c.0072893-.00728929.0145675-.01448336.0218355-.02158316l.0293707-.02937076c.2138448-.20093777.4188547-.32181491.6316053-.38629884.2299168-.06968696.4650476-.06968696.6949644 0 .2299168.06968695.4507934.20523467.6828115.43725276l.0607329.06073292c.2320181.23201809.3675658.45289471.4372528.68281152.0696869.2299168.0696869.46504758 0 .69496439-.064484.21275057-.1853611.4177605-.386884.63102009l-7.4385024 7.44017733 7.4393399 7.4393398c.2007344.2139279.3215756.4188979.3860465.6316053.0696869.2299168.0696869.4650476 0 .6949644-.069687.2299168-.2052347.4507934-.4372528.6828115l-.0607329.0607329c-.2320181.2320181-.4528947.3675658-.6828115.4372528-.2299168.0696869-.4650476.0696869-.6949644 0-.2127074-.0644709-.4176774-.1853121-.6308904-.3867614l-7.43633804-7.4349083z" fill="#141414" fill-rule="evenodd"/></svg>